<svg width="485" height="345" viewBox="0 0 485 345" fill="none" xmlns="http://www.w3.org/2000/svg">
<rect width="485" height="345" fill="#0D0C0C"/>
<rect width="485" height="345" fill="#161212"/>
<path d="M66 90C72.5842 78.752 82.0203 75 95 75C100.333 75 107.057 74.4457 111.222 77.7778C115.648 81.3187 121.549 79.1864 125 83.5C125.767 84.459 131.02 84.6487 132.444 85.0556C134.776 85.7216 136.754 86 139.5 86C144.476 86 152.079 87.4948 156.444 85C159.728 83.1236 162.684 79.429 165.889 78.0556C167.485 77.3716 169.94 75.8246 171 74.5C173.171 71.7868 179.218 66 183 66" stroke="white" stroke-width="3" stroke-linecap="round"/>
<path d="M178 66.028C181.466 63.5074 186.091 61.2048 190 59.2502C194.068 57.2161 196.239 55.9192 200.5 54.9725C206.426 53.6555 213.02 51.028 219 51.028C231.334 51.028 242.817 50.2397 253 57.028" stroke="#FDFDFD" stroke-width="3" stroke-linecap="round"/>
<path d="M103.048 260C96.5822 257.477 92.6791 255.631 87.6034 250.556C86.7465 249.699 81.1938 244.827 81.0479 244C80.5342 241.089 75.9871 238.537 75.1034 235.444C74.0957 231.917 71.2764 224.987 68.6034 222C66.4221 219.562 66.0942 215.204 64.4923 212C63.4505 209.916 63.2407 207.716 62.0479 205.778C60.6741 203.545 58.0893 201.235 57.2701 198.778C54.3761 190.096 51.0044 182.1 49.2701 172.778C47.6289 163.956 48.0479 154.782 48.0479 145.778C48.0479 138.429 48.4041 128.807 51.2701 122C54.3855 114.601 57.2907 108.097 61.0479 101C65.0935 93.3582 68.4518 84 78.0479 84" stroke="#FFFEFE" stroke-width="3" stroke-linecap="round"/>
<path d="M281 201C276.22 210.206 270.72 218.124 264.444 226.111C261.056 230.424 257.532 235.846 253 238.778C249.787 240.857 246.419 244.668 243.944 247.556C241.443 250.474 237.489 251.872 235.444 254.5C230.937 260.295 221.421 261 214.5 261C205.615 261 198.839 260.305 191 256.778C184.279 253.753 175.286 252 167.778 252C165.803 252 157.341 250.824 156 252.5C154.117 254.853 164.124 250.159 161.5 251.617C158.836 253.097 139.87 262.681 137 263C135.003 263.222 134.207 265 132 265C129.453 265 128.331 267 126.5 267C122.22 267 117.61 269.283 113.5 267C111.179 265.711 98 265 105 261" stroke="white" stroke-width="3" stroke-linecap="round"/>
<path d="M251.977 59C248.731 60.7442 240.861 65.2678 240.047 69.9847C239.525 73.006 235.996 75.0449 235.996 77.931C235.996 82.6895 232.334 87.2706 230.558 91.545C229.206 94.7987 229.264 101.484 229.004 105.042C228.445 112.697 226.688 120.036 229.781 127.362C232.734 134.358 235.077 141.703 239.991 146.877C244.023 151.122 248.915 154.053 252.754 158.096C255.907 161.415 261.699 166.676 266.96 167.328C273.205 168.101 276.133 171.54 282.387 168.613C286.419 166.726 284.502 167.515 286.937 172.002C288.379 174.66 287.936 177.794 287.936 181" stroke="white" stroke-width="3" stroke-linecap="round"/>
<path d="M279 203.735C279.815 198.742 279.974 194.231 282.222 189.735C283.761 186.658 283 194.138 283 195.735" stroke="white" stroke-width="3" stroke-linecap="round"/>
<path d="M288 181C284.519 183.719 284.246 185.262 283 189" stroke="#FFFBFB" stroke-width="3" stroke-linecap="round"/>
<path d="M133 62C146.019 59.1422 153.831 47.9646 163.5 40.4444C167.417 37.3979 168.676 31.0595 172.5 28C173.897 26.8821 175.405 22.3309 175.944 20.4444C176.47 18.6053 176.489 13.7554 178 13" stroke="#FFFBFB" stroke-width="3" stroke-linecap="round"/>
<path d="M132 62.2578C132 54.8039 132.304 43.8448 135.5 36.8134C136.847 33.8506 139.792 31.2591 141.5 28.369C142.265 27.0741 145.245 23.5503 147 23.2578C148.91 22.9394 152.003 19.5655 153.556 18.2578C155.966 16.2279 159.706 15.5562 162.444 13.8134C165.229 12.0413 175.713 9.11427 178 10.2578" stroke="#FFFBFB" stroke-width="3" stroke-linecap="round"/>
</svg>
